<?xml version="1.0" encoding="utf-8"?>
<!-- Generator: Adobe Illustrator 19.0.0, SVG Export Plug-In . SVG Version: 6.00 Build 0)  -->
<svg version="1.1" id="Layer_1" xmlns="http://www.w3.org/2000/svg" xmlns:xlink="http://www.w3.org/1999/xlink" x="0px" y="0px"
	 viewBox="0 0 96 96" style="enable-background:new 0 0 96 96;" xml:space="preserve">
<style type="text/css">
	.st0{fill:#333333;}
</style>
<g id="XMLID_1_">
	<path id="XMLID_10_" class="st0" d="M26.3,67.5h17.3v4.3H26.3V67.5z M48,41.5H26.3v4.3H48V41.5z M56.7,54.5v-8.7l-13,13l13,13v-8.7
		h21.7v-8.7H56.7z M37.2,50.2H26.3v4.3h10.8V50.2z M26.3,63.2h10.8v-4.3H26.3V63.2z M65.3,67.5h4.3v8.7c-0.1,1.2-0.5,2.3-1.3,3
		c-0.8,0.8-1.8,1.2-3,1.3H22c-2.4,0-4.3-1.9-4.3-4.3V28.5c0-2.4,1.9-4.3,4.3-4.3h13c0-4.8,3.9-8.7,8.7-8.7s8.7,3.9,8.7,8.7h13
		c2.4,0,4.3,1.9,4.3,4.3v21.7h-4.3v-13H22v39h43.3V67.5z M26.3,32.8H61c0-2.4-1.9-4.3-4.3-4.3h-4.3c-2.4,0-4.3-1.9-4.3-4.3
		s-1.9-4.3-4.3-4.3s-4.3,1.9-4.3,4.3s-1.9,4.3-4.3,4.3h-4.3C28.3,28.5,26.3,30.4,26.3,32.8z"/>
</g>
</svg>
